<svg version="1.1" viewBox="0.0 0.0 180.4015748031496 161.15748031496062" fill="none" stroke="none" stroke-linecap="square" stroke-miterlimit="10" xmlns:xlink="http://www.w3.org/1999/xlink" xmlns="http://www.w3.org/2000/svg"><clipPath id="p.0"><path d="m0 0l180.40158 0l0 161.15749l-180.40158 0l0 -161.15749z" clip-rule="nonzero"/></clipPath><g clip-path="url(#p.0)"><path fill="#000000" fill-opacity="0.0" d="m0 0l180.40158 0l0 161.15749l-180.40158 0z" fill-rule="evenodd"/><path fill="#000000" fill-opacity="0.0" d="m-0.003937008 29.257217l180.40945 0l0 114.866135l-180.40945 0z" fill-rule="evenodd"/><path fill="#000000" d="m10.917938 84.098465q2.609375 -0.0625 4.25 -1.390625q1.640625 -1.34375 2.1875 -3.671875q0.546875 -2.34375 0.578125 -8.0q0.03125 -5.65625 0.203125 -7.453125q0.296875 -2.84375 1.125 -4.5625q0.84375 -1.734375 2.0625 -2.765625q1.21875 -1.03125 3.109375 -1.578125q1.28125 -0.328125 4.203125 -0.328125l1.890625 0l0 5.3125l-1.046875 0q-3.53125 0 -4.6875 1.265625q-1.140625 1.265625 -1.140625 5.671875q0 8.875 -0.375 11.203125q-0.609375 3.625 -2.078125 5.59375q-1.46875 1.953125 -4.625 3.484375q3.734375 1.546875 5.40625 4.75q1.671875 3.203125 1.671875 10.484375q0 6.59375 0.140625 7.84375q0.265625 2.3125 1.359375 3.21875q1.109375 0.921875 4.328125 0.921875l1.046875 0l0 5.3125l-1.890625 0q-3.328125 0 -4.8125 -0.546875q-2.171875 -0.78125 -3.59375 -2.53125q-1.421875 -1.734375 -1.84375 -4.40625q-0.421875 -2.671875 -0.453125 -8.765625q-0.03125 -6.09375 -0.578125 -8.421875q-0.546875 -2.34375 -2.1875 -3.6875q-1.640625 -1.359375 -4.25 -1.4375l0 -5.515625zm42.420135 0l0 5.515625q-2.609375 0.078125 -4.25 1.4375q-1.640625 1.34375 -2.1875 3.671875q-0.53125 2.3125 -0.5625 7.96875q-0.03125 5.640625 -0.203125 7.4375q-0.3125 2.875 -1.140625 4.578125q-0.828125 1.71875 -2.046875 2.75q-1.21875 1.03125 -3.109375 1.578125q-1.296875 0.375 -4.203125 0.375l-1.890625 0l0 -5.3125l1.046875 0q3.515625 0 4.671875 -1.28125q1.15625 -1.265625 1.15625 -5.703125q0 -8.453125 0.296875 -10.71875q0.546875 -3.765625 2.171875 -6.015625q1.625 -2.25 4.59375 -3.5q-3.890625 -1.859375 -5.484375 -4.921875q-1.578125 -3.078125 -1.578125 -10.34375q0 -6.609375 -0.171875 -7.890625q-0.234375 -2.265625 -1.34375 -3.15625q-1.09375 -0.90625 -4.3125 -0.90625l-1.046875 0l0 -5.3125l1.890625 0q3.3125 0 4.8125 0.53125q2.15625 0.75 3.578125 2.515625q1.421875 1.75 1.84375 4.4375q0.4375 2.671875 0.46875 8.765625q0.03125 6.09375 0.5625 8.40625q0.546875 2.3125 2.1875 3.671875q1.640625 1.359375 4.25 1.421875zm29.99826 7.546875l5.984375 0.78125q-0.96875 6.203125 -5.015625 9.703125q-4.046875 3.5 -9.9375 3.5q-7.390625 0 -11.875 -4.8125q-4.484375 -4.828125 -4.484375 -13.84375q0 -5.8125 1.921875 -10.171875q1.9375 -4.375 5.875 -6.5625q3.953125 -2.1875 8.59375 -2.1875q5.859375 0 9.578125 2.96875q3.71875 2.953125 4.78125 8.40625l-5.9375 0.921875q-0.84375 -3.625 -3.0 -5.453125q-2.140625 -1.828125 -5.1875 -1.828125q-4.609375 0 -7.484375 3.296875q-2.875 3.296875 -2.875 10.4375q0 7.25 2.765625 10.53125q2.78125 3.28125 7.25 3.28125q3.59375 0 6.0 -2.1875q2.40625 -2.203125 3.046875 -6.78125zm34.757812 13.171875l0 -5.28125q-4.1875 6.09375 -11.40625 6.09375q-3.171875 0 -5.9375 -1.21875q-2.765625 -1.21875 -4.109375 -3.0625q-1.328125 -1.84375 -1.859375 -4.515625q-0.375 -1.796875 -0.375 -5.6875l0 -22.28125l6.09375 0l0 19.9375q0 4.78125 0.375 6.4375q0.5625 2.40625 2.421875 3.78125q1.875 1.359375 4.609375 1.359375q2.75 0 5.140625 -1.40625q2.40625 -1.40625 3.40625 -3.8125q1.0 -2.421875 1.0 -7.03125l0 -19.265625l6.09375 0l0 35.953125l-5.453125 0zm14.932007 0l0 -35.953125l5.484375 0l0 5.453125q2.09375 -3.828125 3.875 -5.046875q1.78125 -1.21875 3.90625 -1.21875q3.09375 0 6.265625 1.96875l-2.09375 5.65625q-2.234375 -1.328125 -4.46875 -1.328125q-2.0 0 -3.59375 1.203125q-1.59375 1.203125 -2.265625 3.328125q-1.015625 3.25 -1.015625 7.109375l0 18.828125l-6.09375 0zm23.024307 0l0 -49.625l6.09375 0l0 49.625l-6.09375 0z" fill-rule="nonzero"/></g></svg>