<svg version="1.1" viewBox="0.0 0.0 180.4015748031496 161.15748031496062" fill="none" stroke="none" stroke-linecap="square" stroke-miterlimit="10" xmlns:xlink="http://www.w3.org/1999/xlink" xmlns="http://www.w3.org/2000/svg"><clipPath id="p.0"><path d="m0 0l180.40158 0l0 161.15749l-180.40158 0l0 -161.15749z" clip-rule="nonzero"/></clipPath><g clip-path="url(#p.0)"><path fill="#000000" fill-opacity="0.0" d="m0 0l180.40158 0l0 161.15749l-180.40158 0z" fill-rule="evenodd"/><path fill="#000000" fill-opacity="0.0" d="m76.41989 29.257217l109.6693 0l0 114.866135l-109.6693 0z" fill-rule="evenodd"/><path fill="#000000" d="m113.31052 104.817215l0 -4.53125q-3.421875 5.34375 -10.046875 5.34375q-4.296875 0 -7.90625 -2.359375q-3.609375 -2.375 -5.59375 -6.625q-1.96875 -4.25 -1.96875 -9.765625q0 -5.390625 1.78125 -9.765625q1.796875 -4.390625 5.390625 -6.71875q3.59375 -2.34375 8.015625 -2.34375q3.25 0 5.78125 1.375q2.546875 1.375 4.140625 3.5625l0 -17.796875l6.0625 0l0 49.625l-5.65625 0zm-19.265625 -17.9375q0 6.90625 2.90625 10.328125q2.921875 3.40625 6.890625 3.40625q3.984375 0 6.78125 -3.265625q2.796875 -3.265625 2.796875 -9.96875q0 -7.375 -2.84375 -10.828125q-2.84375 -3.453125 -7.015625 -3.453125q-4.0625 0 -6.796875 3.328125q-2.71875 3.3125 -2.71875 10.453125zm34.54138 -24.6875l0 -7.0l6.09375 0l0 7.0l-6.09375 0zm0 42.625l0 -35.953125l6.09375 0l0 35.953125l-6.09375 0zm25.355621 0l-13.6875 -35.953125l6.4375 0l7.71875 21.53125q1.25 3.484375 2.296875 7.25q0.8125 -2.84375 2.265625 -6.84375l8.0 -21.9375l6.265625 0l-13.609375 35.953125l-5.6875 0z" fill-rule="nonzero"/><path fill="#000000" d="m4.367454 84.272964l0 0c0 -20.978123 16.91447 -37.98425 37.779526 -37.98425l0 0c10.019756 0 19.629128 4.0018997 26.714165 11.125328c7.0850296 7.123432 11.065361 16.78487 11.065361 26.858921l0 0c0 20.978127 -16.914467 37.984253 -37.779526 37.984253l0 0c-20.865055 0 -37.779526 -17.006126 -37.779526 -37.984253zm10.902416 0l0 0c0 14.956886 12.033294 27.08184 26.87711 27.08184c14.843819 0 26.877113 -12.124954 26.877113 -27.08184c0 -14.956886 -12.033295 -27.081833 -26.877113 -27.081833l0 0c-14.843817 0 -26.87711 12.124947 -26.87711 27.081833z" fill-rule="evenodd"/><path stroke="#000000" stroke-width="1.0" stroke-linejoin="round" stroke-linecap="butt" d="m4.367454 84.272964l0 0c0 -20.978123 16.91447 -37.98425 37.779526 -37.98425l0 0c10.019756 0 19.629128 4.0018997 26.714165 11.125328c7.0850296 7.123432 11.065361 16.78487 11.065361 26.858921l0 0c0 20.978127 -16.914467 37.984253 -37.779526 37.984253l0 0c-20.865055 0 -37.779526 -17.006126 -37.779526 -37.984253zm10.902416 0l0 0c0 14.956886 12.033294 27.08184 26.87711 27.08184c14.843819 0 26.877113 -12.124954 26.877113 -27.08184c0 -14.956886 -12.033295 -27.081833 -26.877113 -27.081833l0 0c-14.843817 0 -26.87711 12.124947 -26.87711 27.081833z" fill-rule="evenodd"/></g></svg>