<svg version="1.1" viewBox="0.0 0.0 960.0 720.0" fill="none" stroke="none" stroke-linecap="square" stroke-miterlimit="10" xmlns:xlink="http://www.w3.org/1999/xlink" xmlns="http://www.w3.org/2000/svg"><clipPath id="p.0"><path d="m0 0l960.0 0l0 720.0l-960.0 0l0 -720.0z" clip-rule="nonzero"/></clipPath><g clip-path="url(#p.0)"><path fill="#000000" fill-opacity="0.0" d="m0 0l960.0 0l0 720.0l-960.0 0z" fill-rule="evenodd"/><path fill="#000000" d="m0 720.0l427.5118 -720.0l427.5118 720.0z" fill-rule="evenodd"/><path stroke="#000000" stroke-width="1.5039370078740157" stroke-linejoin="round" stroke-linecap="butt" d="m0 720.0l427.5118 -720.0l427.5118 720.0z" fill-rule="evenodd"/><path fill="#ffffff" d="m101.30423 666.9125l328.6299 -569.2284l328.62994 569.2284z" fill-rule="evenodd"/><path stroke="#000000" stroke-width="1.5039370078740157" stroke-linejoin="round" stroke-linecap="butt" d="m101.30423 666.9125l328.6299 -569.2284l328.62994 569.2284z" fill-rule="evenodd"/><path fill="#000000" d="m313.66928 476.26248l0 0c0 -62.43863 50.969055 -113.055145 113.84253 -113.055145l0 0c30.192902 0 59.1492 11.911133 80.49881 33.1131c21.34961 21.201935 33.34369 49.957947 33.34369 79.94205l0 0c0 62.43863 -50.969025 113.055084 -113.8425 113.055084l0 0c-62.873474 0 -113.84253 -50.616455 -113.84253 -113.055084zm25.731354 0l0 0c0 48.22757 39.44873 87.32376 88.111176 87.32376c48.662445 0 88.111176 -39.09619 88.111176 -87.32376l0 0c0 -48.2276 -39.44873 -87.32379 -88.111176 -87.32379l0 0c-48.662445 0 -88.111176 39.09619 -88.111176 87.32379z" fill-rule="evenodd"/><path stroke="#000000" stroke-width="1.5039370078740157" stroke-linejoin="round" stroke-linecap="butt" d="m313.66928 476.26248l0 0c0 -62.43863 50.969055 -113.055145 113.84253 -113.055145l0 0c30.192902 0 59.1492 11.911133 80.49881 33.1131c21.34961 21.201935 33.34369 49.957947 33.34369 79.94205l0 0c0 62.43863 -50.969025 113.055084 -113.8425 113.055084l0 0c-62.873474 0 -113.84253 -50.616455 -113.84253 -113.055084zm25.731354 0l0 0c0 48.22757 39.44873 87.32376 88.111176 87.32376c48.662445 0 88.111176 -39.09619 88.111176 -87.32376l0 0c0 -48.2276 -39.44873 -87.32379 -88.111176 -87.32379l0 0c-48.662445 0 -88.111176 39.09619 -88.111176 87.32379z" fill-rule="evenodd"/><path fill="#000000" d="m242.14174 332.87378l116.535416 78.20474l-23.24408 34.614166l-116.53543 -78.20471z" fill-rule="evenodd"/><path stroke="#000000" stroke-width="1.0" stroke-linejoin="round" stroke-linecap="butt" d="m242.14174 332.87378l116.535416 78.20474l-23.24408 34.614166l-116.53543 -78.20471z" fill-rule="evenodd"/><path fill="#000000" d="m638.8125 371.65295l-120.944885 71.18109l-21.102325 -35.93701l120.944855 -71.18109z" fill-rule="evenodd"/><path stroke="#000000" stroke-width="1.0" stroke-linejoin="round" stroke-linecap="butt" d="m638.8125 371.65295l-120.944885 71.18109l-21.102325 -35.93701l120.944855 -71.18109z" fill-rule="evenodd"/><path fill="#000000" d="m450.7682 570.0025l0 140.34644l-41.66931 0l0 -140.34644z" fill-rule="evenodd"/><path stroke="#000000" stroke-width="1.0" stroke-linejoin="round" stroke-linecap="butt" d="m450.7682 570.0025l0 140.34644l-41.66931 0l0 -140.34644z" fill-rule="evenodd"/><path fill="#000000" fill-opacity="0.0" d="m638.81366 128.28346l461.82672 0l0 42.015747l-461.82672 0z" fill-rule="evenodd"/><path fill="#000000" d="m541.2021 284.85004l-227.52759 0.18896484l0 -41.66928l227.52759 -0.1889801z" fill-rule="evenodd"/><path stroke="#000000" stroke-width="1.0" stroke-linejoin="round" stroke-linecap="butt" d="m541.2021 284.85004l-227.52759 0.18896484l0 -41.66928l227.52759 -0.1889801z" fill-rule="evenodd"/><path fill="#000000" d="m540.9513 689.3176l94.17328 -238.39374l38.740112 15.338593l-94.17322 238.3937z" fill-rule="evenodd"/><path stroke="#000000" stroke-width="1.0" stroke-linejoin="round" stroke-linecap="butt" d="m540.9513 689.3176l94.17328 -238.39374l38.740112 15.338593l-94.17322 238.3937z" fill-rule="evenodd"/><path fill="#000000" d="m378.99738 200.83989l0 0c0 -25.900848 22.61139 -46.89763 50.503937 -46.89763l0 0c27.892548 0 50.503937 20.99678 50.503937 46.89763l0 0c0 25.900848 -22.61139 46.897644 -50.503937 46.897644l0 0c-27.892548 0 -50.503937 -20.996796 -50.503937 -46.897644zm10.673889 0l0 0c0 20.005829 17.83252 36.22374 39.830048 36.22374c21.997528 0 39.830048 -16.21791 39.830048 -36.22374l0 0c0 -20.005814 -17.83252 -36.223724 -39.830048 -36.223724l0 0c-21.997528 0 -39.830048 16.21791 -39.830048 36.223724z" fill-rule="evenodd"/><path stroke="#000000" stroke-width="1.5039370078740157" stroke-linejoin="round" stroke-linecap="butt" d="m378.99738 200.83989l0 0c0 -25.900848 22.61139 -46.89763 50.503937 -46.89763l0 0c27.892548 0 50.503937 20.99678 50.503937 46.89763l0 0c0 25.900848 -22.61139 46.897644 -50.503937 46.897644l0 0c-27.892548 0 -50.503937 -20.996796 -50.503937 -46.897644zm10.673889 0l0 0c0 20.005829 17.83252 36.22374 39.830048 36.22374c21.997528 0 39.830048 -16.21791 39.830048 -36.22374l0 0c0 -20.005814 -17.83252 -36.223724 -39.830048 -36.223724l0 0c-21.997528 0 -39.830048 16.21791 -39.830048 36.223724z" fill-rule="evenodd"/><path fill="#000000" d="m617.09186 618.4593l0 0c0 -26.76184 23.577332 -48.456665 52.661438 -48.456665l0 0c29.084106 0 52.661377 21.694824 52.661377 48.456665l0 0c0 26.761902 -23.57727 48.456726 -52.661377 48.456726l0 0c-29.084106 0 -52.661438 -21.694824 -52.661438 -48.456726zm11.028748 0l0 0c0 20.670898 18.639587 37.42798 41.63269 37.42798c22.993103 0 41.63263 -16.75708 41.63263 -37.42798l0 0c0 -20.670837 -18.639526 -37.427917 -41.63263 -37.427917l0 0c-22.993103 0 -41.63269 16.75708 -41.63269 37.427917z" fill-rule="evenodd"/><path stroke="#000000" stroke-width="1.5039370078740157" stroke-linejoin="round" stroke-linecap="butt" d="m617.09186 618.4593l0 0c0 -26.76184 23.577332 -48.456665 52.661438 -48.456665l0 0c29.084106 0 52.661377 21.694824 52.661377 48.456665l0 0c0 26.761902 -23.57727 48.456726 -52.661377 48.456726l0 0c-29.084106 0 -52.661438 -21.694824 -52.661438 -48.456726zm11.028748 0l0 0c0 20.670898 18.639587 37.42798 41.63269 37.42798c22.993103 0 41.63263 -16.75708 41.63263 -37.42798l0 0c0 -20.670837 -18.639526 -37.427917 -41.63263 -37.427917l0 0c-22.993103 0 -41.63269 16.75708 -41.63269 37.427917z" fill-rule="evenodd"/><path fill="#000000" fill-opacity="0.0" d="m410.08398 299.10498l35.275604 0l0 42.015747l-35.275604 0z" fill-rule="evenodd"/><path fill="#000000" d="m420.81836 326.025l0 -13.359375l1.765625 0l0 13.359375l-1.765625 0zm5.073944 0l0 -8.40625l-1.453125 0l0 -1.265625l1.453125 0l0 -1.03125q0 -0.96875 0.171875 -1.453125q0.234375 -0.640625 0.828125 -1.03125q0.59375 -0.390625 1.671875 -0.390625q0.6875 0 1.53125 0.15625l-0.25 1.4375q-0.5 -0.09375 -0.953125 -0.09375q-0.75 0 -1.0625 0.328125q-0.3125 0.3125 -0.3125 1.1875l0 0.890625l1.890625 0l0 1.265625l-1.890625 0l0 8.40625l-1.625 0z" fill-rule="nonzero"/><path fill="#000000" fill-opacity="0.0" d="m409.80054 175.59317l41.66928 0l0 42.015747l-41.66928 0z" fill-rule="evenodd"/><path fill="#000000" d="m426.30054 202.51317l0 -1.21875q-0.90625 1.4375 -2.703125 1.4375q-1.15625 0 -2.125 -0.640625q-0.96875 -0.640625 -1.5 -1.78125q-0.53125 -1.140625 -0.53125 -2.625q0 -1.453125 0.484375 -2.625q0.484375 -1.1875 1.4375 -1.8125q0.96875 -0.625 2.171875 -0.625q0.875 0 1.546875 0.375q0.6875 0.359375 1.109375 0.953125l0 -4.796875l1.640625 0l0 13.359375l-1.53125 0zm-5.171875 -4.828125q0 1.859375 0.78125 2.78125q0.78125 0.921875 1.84375 0.921875q1.078125 0 1.828125 -0.875q0.75 -0.890625 0.75 -2.6875q0 -1.984375 -0.765625 -2.90625q-0.765625 -0.9375 -1.890625 -0.9375q-1.078125 0 -1.8125 0.890625q-0.734375 0.890625 -0.734375 2.8125zm8.672577 -0.015625q0 -2.6875 1.484375 -3.96875q1.25 -1.078125 3.046875 -1.078125q2.0 0 3.265625 1.3125q1.265625 1.296875 1.265625 3.609375q0 1.859375 -0.5625 2.9375q-0.5625 1.0625 -1.640625 1.65625q-1.0625 0.59375 -2.328125 0.59375q-2.03125 0 -3.28125 -1.296875q-1.25 -1.3125 -1.25 -3.765625zm1.6875 0q0 1.859375 0.796875 2.796875q0.8125 0.921875 2.046875 0.921875q1.21875 0 2.03125 -0.921875q0.8125 -0.9375 0.8125 -2.84375q0 -1.796875 -0.8125 -2.71875q-0.8125 -0.921875 -2.03125 -0.921875q-1.234375 0 -2.046875 0.921875q-0.796875 0.90625 -0.796875 2.765625z" fill-rule="nonzero"/><path fill="#000000" fill-opacity="0.0" d="m489.31497 578.08923l89.22836 0l0 42.015747l-89.22836 0z" fill-rule="evenodd"/><path fill="#000000" d="m499.78372 605.0092l0 -13.359375l9.65625 0l0 1.578125l-7.875 0l0 4.09375l7.375 0l0 1.5625l-7.375 0l0 4.546875l8.1875 0l0 1.578125l-9.96875 0zm12.162323 0l0 -13.359375l1.640625 0l0 13.359375l-1.640625 0zm3.5354614 -2.890625l1.625 -0.25q0.125 0.96875 0.75 1.5q0.625 0.515625 1.75 0.515625q1.125 0 1.671875 -0.453125q0.546875 -0.46875 0.546875 -1.09375q0 -0.546875 -0.484375 -0.875q-0.328125 -0.21875 -1.671875 -0.546875q-1.8125 -0.46875 -2.515625 -0.796875q-0.6875 -0.328125 -1.046875 -0.90625q-0.359375 -0.59375 -0.359375 -1.3125q0 -0.640625 0.296875 -1.1875q0.296875 -0.5625 0.8125 -0.921875q0.375 -0.28125 1.03125 -0.46875q0.671875 -0.203125 1.421875 -0.203125q1.140625 0 2.0 0.328125q0.859375 0.328125 1.265625 0.890625q0.421875 0.5625 0.578125 1.5l-1.609375 0.21875q-0.109375 -0.75 -0.640625 -1.171875q-0.515625 -0.421875 -1.46875 -0.421875q-1.140625 0 -1.625 0.375q-0.46875 0.375 -0.46875 0.875q0 0.3125 0.1875 0.578125q0.203125 0.265625 0.640625 0.4375q0.234375 0.09375 1.4375 0.421875q1.75 0.453125 2.4375 0.75q0.6875 0.296875 1.078125 0.859375q0.390625 0.5625 0.390625 1.40625q0 0.828125 -0.484375 1.546875q-0.46875 0.71875 -1.375 1.125q-0.90625 0.390625 -2.046875 0.390625q-1.875 0 -2.875 -0.78125q-0.984375 -0.78125 -1.25 -2.328125zm16.609375 -0.21875l1.6875 0.203125q-0.40625 1.484375 -1.484375 2.3125q-1.078125 0.8125 -2.765625 0.8125q-2.125 0 -3.375 -1.296875q-1.234375 -1.3125 -1.234375 -3.671875q0 -2.453125 1.25 -3.796875q1.265625 -1.34375 3.265625 -1.34375q1.9375 0 3.15625 1.328125q1.234375 1.3125 1.234375 3.703125q0 0.15625 0 0.4375l-7.21875 0q0.09375 1.59375 0.90625 2.453125q0.8125 0.84375 2.015625 0.84375q0.90625 0 1.546875 -0.46875q0.640625 -0.484375 1.015625 -1.515625zm-5.390625 -2.65625l5.40625 0q-0.109375 -1.21875 -0.625 -1.828125q-0.78125 -0.953125 -2.03125 -0.953125q-1.125 0 -1.90625 0.765625q-0.765625 0.75 -0.84375 2.015625zm14.324646 -5.703125l0 -1.890625l1.640625 0l0 1.890625l-1.640625 0zm0 11.46875l0 -9.671875l1.640625 0l0 9.671875l-1.640625 0zm4.5354004 0l0 -8.40625l-1.453125 0l0 -1.265625l1.453125 0l0 -1.03125q0 -0.96875 0.171875 -1.453125q0.234375 -0.640625 0.828125 -1.03125q0.59375 -0.390625 1.671875 -0.390625q0.6875 0 1.53125 0.15625l-0.25 1.4375q-0.5 -0.09375 -0.953125 -0.09375q-0.75 0 -1.0625 0.328125q-0.3125 0.3125 -0.3125 1.1875l0 0.890625l1.890625 0l0 1.265625l-1.890625 0l0 8.40625l-1.625 0z" fill-rule="nonzero"/><path fill="#000000" fill-opacity="0.0" d="m648.91864 597.4514l41.66931 0l0 42.015747l-41.66931 0z" fill-rule="evenodd"/><path fill="#000000" d="m665.41864 624.37146l0 -1.21875q-0.90625 1.4375 -2.703125 1.4375q-1.15625 0 -2.125 -0.640625q-0.96875 -0.640625 -1.5 -1.78125q-0.53125 -1.140625 -0.53125 -2.625q0 -1.453125 0.484375 -2.625q0.484375 -1.1875 1.4375 -1.8125q0.96875 -0.625 2.171875 -0.625q0.875 0 1.546875 0.375q0.6875 0.359375 1.109375 0.953125l0 -4.796875l1.640625 0l0 13.359375l-1.53125 0zm-5.171875 -4.828125q0 1.859375 0.78125 2.78125q0.78125 0.921875 1.84375 0.921875q1.078125 0 1.828125 -0.875q0.75 -0.890625 0.75 -2.6875q0 -1.984375 -0.765625 -2.90625q-0.765625 -0.9375 -1.890625 -0.9375q-1.078125 0 -1.8125 0.890625q-0.734375 0.890625 -0.734375 2.8125zm8.672607 -0.015625q0 -2.6875 1.484375 -3.96875q1.25 -1.078125 3.046875 -1.078125q2.0 0 3.265625 1.3125q1.265625 1.296875 1.265625 3.609375q0 1.859375 -0.5625 2.9375q-0.5625 1.0625 -1.640625 1.65625q-1.0625 0.59375 -2.328125 0.59375q-2.03125 0 -3.28125 -1.296875q-1.25 -1.3125 -1.25 -3.765625zm1.6875 0q0 1.859375 0.796875 2.796875q0.8125 0.921875 2.046875 0.921875q1.21875 0 2.03125 -0.921875q0.8125 -0.9375 0.8125 -2.84375q0 -1.796875 -0.8125 -2.71875q-0.8125 -0.921875 -2.03125 -0.921875q-1.234375 0 -2.046875 0.921875q-0.796875 0.90625 -0.796875 2.765625z" fill-rule="nonzero"/><path fill="#000000" fill-opacity="0.0" d="m225.26509 570.0026l59.464554 0l0 42.015747l-59.464554 0z" fill-rule="evenodd"/><path fill="#000000" d="m235.73384 596.9226l0 -13.359375l9.65625 0l0 1.578125l-7.875 0l0 4.09375l7.375 0l0 1.5625l-7.375 0l0 4.546875l8.1875 0l0 1.578125l-9.96875 0zm12.162323 0l0 -13.359375l1.640625 0l0 13.359375l-1.640625 0zm3.5354462 -2.890625l1.625 -0.25q0.125 0.96875 0.75 1.5q0.625 0.515625 1.75 0.515625q1.125 0 1.671875 -0.453125q0.546875 -0.46875 0.546875 -1.09375q0 -0.546875 -0.484375 -0.875q-0.328125 -0.21875 -1.671875 -0.546875q-1.8125 -0.46875 -2.515625 -0.796875q-0.6875 -0.328125 -1.046875 -0.90625q-0.359375 -0.59375 -0.359375 -1.3125q0 -0.640625 0.296875 -1.1875q0.296875 -0.5625 0.8125 -0.921875q0.375 -0.28125 1.03125 -0.46875q0.671875 -0.203125 1.421875 -0.203125q1.140625 0 2.0 0.328125q0.859375 0.328125 1.265625 0.890625q0.421875 0.5625 0.578125 1.5l-1.609375 0.21875q-0.109375 -0.75 -0.640625 -1.171875q-0.515625 -0.421875 -1.46875 -0.421875q-1.140625 0 -1.625 0.375q-0.46875 0.375 -0.46875 0.875q0 0.3125 0.1875 0.578125q0.203125 0.265625 0.640625 0.4375q0.234375 0.09375 1.4375 0.421875q1.75 0.453125 2.4375 0.75q0.6875 0.296875 1.078125 0.859375q0.390625 0.5625 0.390625 1.40625q0 0.828125 -0.484375 1.546875q-0.46875 0.71875 -1.375 1.125q-0.90625 0.390625 -2.046875 0.390625q-1.875 0 -2.875 -0.78125q-0.984375 -0.78125 -1.25 -2.328125zm16.609375 -0.21875l1.6875 0.203125q-0.40625 1.484375 -1.484375 2.3125q-1.078125 0.8125 -2.765625 0.8125q-2.125 0 -3.375 -1.296875q-1.234375 -1.3125 -1.234375 -3.671875q0 -2.453125 1.25 -3.796875q1.265625 -1.34375 3.265625 -1.34375q1.9375 0 3.15625 1.328125q1.234375 1.3125 1.234375 3.703125q0 0.15625 0 0.4375l-7.21875 0q0.09375 1.59375 0.90625 2.453125q0.8125 0.84375 2.015625 0.84375q0.90625 0 1.546875 -0.46875q0.640625 -0.484375 1.015625 -1.515625zm-5.390625 -2.65625l5.40625 0q-0.109375 -1.21875 -0.625 -1.828125q-0.78125 -0.953125 -2.03125 -0.953125q-1.125 0 -1.90625 0.765625q-0.765625 0.75 -0.84375 2.015625z" fill-rule="nonzero"/><path fill="#000000" fill-opacity="0.0" d="m395.2756 450.9239l89.22833 0l0 42.015747l-89.22833 0z" fill-rule="evenodd"/><path fill="#000000" d="m415.24435 473.15637l1.765625 0.453125q-0.5625 2.171875 -2.0 3.328125q-1.4375 1.140625 -3.53125 1.140625q-2.15625 0 -3.515625 -0.875q-1.34375 -0.890625 -2.0625 -2.546875q-0.703125 -1.671875 -0.703125 -3.59375q0 -2.078125 0.796875 -3.625q0.796875 -1.5625 2.265625 -2.359375q1.484375 -0.8125 3.25 -0.8125q2.0 0 3.359375 1.015625q1.375 1.015625 1.90625 2.875l-1.734375 0.40625q-0.46875 -1.453125 -1.359375 -2.109375q-0.875 -0.671875 -2.203125 -0.671875q-1.546875 0 -2.578125 0.734375q-1.03125 0.734375 -1.453125 1.984375q-0.421875 1.234375 -0.421875 2.5625q0 1.703125 0.5 2.96875q0.5 1.265625 1.546875 1.90625q1.046875 0.625 2.265625 0.625q1.484375 0 2.515625 -0.859375q1.03125 -0.859375 1.390625 -2.546875zm3.129181 -0.15625q0 -2.6875 1.484375 -3.96875q1.25 -1.078125 3.046875 -1.078125q2.0 0 3.265625 1.3125q1.265625 1.296875 1.265625 3.609375q0 1.859375 -0.5625 2.9375q-0.5625 1.0625 -1.640625 1.65625q-1.0625 0.59375 -2.328125 0.59375q-2.03125 0 -3.28125 -1.296875q-1.25 -1.3125 -1.25 -3.765625zm1.6875 0q0 1.859375 0.796875 2.796875q0.8125 0.921875 2.046875 0.921875q1.21875 0 2.03125 -0.921875q0.8125 -0.9375 0.8125 -2.84375q0 -1.796875 -0.8125 -2.71875q-0.8125 -0.921875 -2.03125 -0.921875q-1.234375 0 -2.046875 0.921875q-0.796875 0.90625 -0.796875 2.765625zm9.297607 4.84375l0 -9.671875l1.46875 0l0 1.375q1.0625 -1.59375 3.078125 -1.59375q0.875 0 1.609375 0.3125q0.734375 0.3125 1.09375 0.828125q0.375 0.5 0.515625 1.203125q0.09375 0.453125 0.09375 1.59375l0 5.953125l-1.640625 0l0 -5.890625q0 -1.0 -0.203125 -1.484375q-0.1875 -0.5 -0.671875 -0.796875q-0.484375 -0.296875 -1.140625 -0.296875q-1.046875 0 -1.8125 0.671875q-0.75 0.65625 -0.75 2.515625l0 5.28125l-1.640625 0zm13.953827 -1.46875l0.234375 1.453125q-0.6875 0.140625 -1.234375 0.140625q-0.890625 0 -1.390625 -0.28125q-0.484375 -0.28125 -0.6875 -0.734375q-0.203125 -0.46875 -0.203125 -1.9375l0 -5.578125l-1.203125 0l0 -1.265625l1.203125 0l0 -2.390625l1.625 -0.984375l0 3.375l1.65625 0l0 1.265625l-1.65625 0l0 5.671875q0 0.6875 0.078125 0.890625q0.09375 0.203125 0.28125 0.328125q0.203125 0.109375 0.578125 0.109375q0.265625 0 0.71875 -0.0625z" fill-rule="nonzero"/></g></svg>