<svg version="1.1" viewBox="0.0 0.0 200.0 200.0" fill="none" stroke="none" stroke-linecap="square" stroke-miterlimit="10" xmlns:xlink="http://www.w3.org/1999/xlink" xmlns="http://www.w3.org/2000/svg"><clipPath id="p.0"><path d="m0 0l200.0 0l0 200.0l-200.0 0l0 -200.0z" clip-rule="nonzero"/></clipPath><g clip-path="url(#p.0)"><path fill="#000000" fill-opacity="0.0" d="m0 0l200.0 0l0 200.0l-200.0 0z" fill-rule="evenodd"/><path fill="#000000" d="m0 57.244095l0 0c0 -31.61504 26.02389 -57.244095 58.125984 -57.244095l0 0c15.41597 0 30.200539 6.031057 41.10128 16.766407c10.900734 10.73535 17.024704 25.295609 17.024704 40.477688l0 0c0 31.615044 -26.023888 57.244095 -58.125984 57.244095l0 0c-32.102097 0 -58.125984 -25.629051 -58.125984 -57.244095zm10.203187 0l0 0c0 25.979973 21.455769 47.04091 47.9228 47.04091c26.467033 0 47.9228 -21.060936 47.9228 -47.04091l0 0c0 -25.979977 -21.455765 -47.04091 -47.9228 -47.04091l0 0c-26.46703 0 -47.9228 21.060932 -47.9228 47.04091z" fill-rule="evenodd"/><path stroke="#000000" stroke-width="1.0" stroke-linejoin="round" stroke-linecap="butt" d="m0 57.244095l0 0c0 -31.61504 26.02389 -57.244095 58.125984 -57.244095l0 0c15.41597 0 30.200539 6.031057 41.10128 16.766407c10.900734 10.73535 17.024704 25.295609 17.024704 40.477688l0 0c0 31.615044 -26.023888 57.244095 -58.125984 57.244095l0 0c-32.102097 0 -58.125984 -25.629051 -58.125984 -57.244095zm10.203187 0l0 0c0 25.979973 21.455769 47.04091 47.9228 47.04091c26.467033 0 47.9228 -21.060936 47.9228 -47.04091l0 0c0 -25.979977 -21.455765 -47.04091 -47.9228 -47.04091l0 0c-26.46703 0 -47.9228 21.060932 -47.9228 47.04091z" fill-rule="evenodd"/><path fill="#000000" d="m27.401575 118.03412l0 0c0 -46.1223 38.637474 -83.51181 86.29922 -83.51181l0 0c22.88797 0 44.838516 8.798542 61.02275 24.460045c16.18425 15.661499 25.276459 36.90306 25.276459 59.051765l0 0c0 46.1223 -38.637466 83.51181 -86.29921 83.51181l0 0c-47.661743 0 -86.29922 -37.38951 -86.29922 -83.51181zm10.352125 0l0 0c0 40.404984 34.00267 73.15968 75.94709 73.15968c41.944412 0 75.94708 -32.7547 75.94708 -73.15968l0 0c0 -40.404976 -34.00267 -73.15968 -75.94708 -73.15968l0 0c-41.94442 0 -75.94709 32.754707 -75.94709 73.15968z" fill-rule="evenodd"/><path stroke="#000000" stroke-width="1.0" stroke-linejoin="round" stroke-linecap="butt" d="m27.401575 118.03412l0 0c0 -46.1223 38.637474 -83.51181 86.29922 -83.51181l0 0c22.88797 0 44.838516 8.798542 61.02275 24.460045c16.18425 15.661499 25.276459 36.90306 25.276459 59.051765l0 0c0 46.1223 -38.637466 83.51181 -86.29921 83.51181l0 0c-47.661743 0 -86.29922 -37.38951 -86.29922 -83.51181zm10.352125 0l0 0c0 40.404984 34.00267 73.15968 75.94709 73.15968c41.944412 0 75.94708 -32.7547 75.94708 -73.15968l0 0c0 -40.404976 -34.00267 -73.15968 -75.94708 -73.15968l0 0c-41.94442 0 -75.94709 32.754707 -75.94709 73.15968z" fill-rule="evenodd"/><path fill="#000000" fill-opacity="0.0" d="m23.721785 26.044619l35.84252 0l0 32.314964l-35.84252 0z" fill-rule="evenodd"/><path fill="#000000" d="m33.54991 45.28462l0 -7.625l2.625 0q0.890625 0 1.359375 0.109375q0.65625 0.140625 1.109375 0.546875q0.609375 0.5 0.90625 1.296875q0.296875 0.796875 0.296875 1.8125q0 0.875 -0.203125 1.546875q-0.203125 0.671875 -0.515625 1.109375q-0.3125 0.4375 -0.703125 0.6875q-0.375 0.25 -0.90625 0.390625q-0.53125 0.125 -1.21875 0.125l-2.75 0zm1.0 -0.90625l1.625 0q0.765625 0 1.1875 -0.140625q0.4375 -0.140625 0.6875 -0.390625q0.359375 -0.359375 0.5625 -0.953125q0.203125 -0.609375 0.203125 -1.484375q0 -1.1875 -0.40625 -1.828125q-0.390625 -0.65625 -0.953125 -0.875q-0.40625 -0.15625 -1.296875 -0.15625l-1.609375 0l0 5.828125zm6.2268524 -1.859375q0 -1.53125 0.84375 -2.265625q0.71875 -0.625 1.734375 -0.625q1.140625 0 1.859375 0.75q0.734375 0.75 0.734375 2.0625q0 1.0625 -0.328125 1.6875q-0.3125 0.609375 -0.921875 0.953125q-0.609375 0.328125 -1.34375 0.328125q-1.15625 0 -1.875 -0.734375q-0.703125 -0.75 -0.703125 -2.15625zm0.953125 0q0 1.0625 0.46875 1.59375q0.46875 0.53125 1.15625 0.53125q0.703125 0 1.15625 -0.53125q0.46875 -0.53125 0.46875 -1.625q0 -1.015625 -0.46875 -1.546875q-0.453125 -0.53125 -1.15625 -0.53125q-0.6875 0 -1.15625 0.53125q-0.46875 0.515625 -0.46875 1.578125z" fill-rule="nonzero"/><path fill="#000000" fill-opacity="0.0" d="m51.244095 60.766403l48.755905 0l0 32.314964l-48.755905 0z" fill-rule="evenodd"/><path fill="#000000" d="m62.400345 80.0064l-2.03125 -7.625l1.046875 0l1.15625 5.0q0.1875 0.78125 0.328125 1.5625q0.28125 -1.234375 0.328125 -1.421875l1.453125 -5.140625l1.21875 0l1.09375 3.859375q0.421875 1.4375 0.59375 2.703125q0.15625 -0.734375 0.390625 -1.65625l1.1875 -4.90625l1.015625 0l-2.09375 7.625l-0.96875 0l-1.609375 -5.8125q-0.203125 -0.734375 -0.234375 -0.890625q-0.125 0.515625 -0.234375 0.890625l-1.609375 5.8125l-1.03125 0zm8.604752 0l0 -7.625l0.9375 0l0 2.734375q0.65625 -0.765625 1.65625 -0.765625q0.609375 0 1.0625 0.25q0.453125 0.234375 0.640625 0.671875q0.203125 0.421875 0.203125 1.234375l0 3.5l-0.9375 0l0 -3.5q0 -0.703125 -0.3125 -1.015625q-0.296875 -0.328125 -0.859375 -0.328125q-0.40625 0 -0.78125 0.21875q-0.359375 0.21875 -0.515625 0.59375q-0.15625 0.359375 -0.15625 1.015625l0 3.015625l-0.9375 0zm5.9264984 -6.546875l0 -1.078125l0.9375 0l0 1.078125l-0.9375 0zm0 6.546875l0 -5.53125l0.9375 0l0 5.53125l-0.9375 0zm2.3518524 0l0 -7.625l0.9375 0l0 7.625l-0.9375 0zm6.1643524 -1.78125l0.96875 0.125q-0.234375 0.84375 -0.859375 1.3125q-0.609375 0.46875 -1.578125 0.46875q-1.203125 0 -1.921875 -0.75q-0.703125 -0.75 -0.703125 -2.09375q0 -1.390625 0.71875 -2.15625q0.71875 -0.78125 1.859375 -0.78125q1.109375 0 1.8125 0.765625q0.703125 0.75 0.703125 2.125q0 0.078125 0 0.234375l-4.125 0q0.046875 0.921875 0.515625 1.40625q0.46875 0.484375 1.15625 0.484375q0.515625 0 0.875 -0.265625q0.359375 -0.28125 0.578125 -0.875zm-3.078125 -1.515625l3.09375 0q-0.0625 -0.6875 -0.359375 -1.046875q-0.453125 -0.53125 -1.15625 -0.53125q-0.640625 0 -1.09375 0.4375q-0.4375 0.421875 -0.484375 1.140625z" fill-rule="nonzero"/><path fill="#000000" fill-opacity="0.0" d="m100.0 113.291336l41.795273 0l0 32.314957l-41.795273 0z" fill-rule="evenodd"/><path fill="#000000" d="m115.265625 129.85947l1.015625 0.25q-0.328125 1.25 -1.15625 1.90625q-0.8125 0.640625 -2.015625 0.640625q-1.234375 0 -2.0 -0.5q-0.765625 -0.5 -1.171875 -1.453125q-0.40625 -0.953125 -0.40625 -2.046875q0 -1.1875 0.453125 -2.078125q0.453125 -0.890625 1.296875 -1.34375q0.84375 -0.46875 1.84375 -0.46875q1.15625 0 1.9375 0.59375q0.78125 0.578125 1.078125 1.640625l-0.984375 0.234375q-0.265625 -0.84375 -0.78125 -1.21875q-0.5 -0.375 -1.265625 -0.375q-0.875 0 -1.46875 0.421875q-0.59375 0.421875 -0.828125 1.140625q-0.234375 0.703125 -0.234375 1.453125q0 0.96875 0.28125 1.703125q0.28125 0.71875 0.875 1.078125q0.59375 0.359375 1.296875 0.359375q0.84375 0 1.4375 -0.484375q0.59375 -0.5 0.796875 -1.453125zm1.7893524 -0.09375q0 -1.53125 0.84375 -2.265625q0.71875 -0.625 1.734375 -0.625q1.140625 0 1.859375 0.75q0.734375 0.75 0.734375 2.0625q0 1.0625 -0.328125 1.6875q-0.3125 0.609375 -0.921875 0.953125q-0.609375 0.328125 -1.34375 0.328125q-1.15625 0 -1.875 -0.734375q-0.703125 -0.75 -0.703125 -2.15625zm0.953125 0q0 1.0625 0.46875 1.59375q0.46875 0.53125 1.15625 0.53125q0.703125 0 1.15625 -0.53125q0.46875 -0.53125 0.46875 -1.625q0 -1.015625 -0.46875 -1.546875q-0.453125 -0.53125 -1.15625 -0.53125q-0.6875 0 -1.15625 0.53125q-0.46875 0.515625 -0.46875 1.578125zm5.3171234 2.765625l0 -5.53125l0.84375 0l0 0.796875q0.609375 -0.921875 1.75 -0.921875q0.5 0 0.921875 0.1875q0.421875 0.171875 0.625 0.46875q0.21875 0.296875 0.296875 0.6875q0.046875 0.265625 0.046875 0.921875l0 3.390625l-0.9375 0l0 -3.359375q0 -0.578125 -0.109375 -0.859375q-0.109375 -0.28125 -0.390625 -0.453125q-0.265625 -0.171875 -0.640625 -0.171875q-0.59375 0 -1.03125 0.390625q-0.4375 0.375 -0.4375 1.4375l0 3.015625l-0.9375 0zm7.9733734 -0.84375l0.125 0.828125q-0.390625 0.09375 -0.703125 0.09375q-0.5 0 -0.78125 -0.15625q-0.28125 -0.171875 -0.40625 -0.4375q-0.109375 -0.265625 -0.109375 -1.109375l0 -3.171875l-0.6875 0l0 -0.734375l0.6875 0l0 -1.359375l0.9375 -0.5625l0 1.921875l0.9375 0l0 0.734375l-0.9375 0l0 3.234375q0 0.390625 0.046875 0.515625q0.046875 0.109375 0.15625 0.1875q0.109375 0.0625 0.328125 0.0625q0.15625 0 0.40625 -0.046875z" fill-rule="nonzero"/></g></svg>